<svg width="71" height="59" viewBox="0 0 71 59" fill="none" xmlns="http://www.w3.org/2000/svg">
<path d="M11.8333 35.4L11.8333 23.6L23.6667 23.6L23.6667 35.4L11.8333 35.4Z" fill="white"/>
<path d="M2.81427e-07 35.4L4.22141e-07 23.6L11.8333 23.6L11.8333 35.4L2.81427e-07 35.4Z" fill="white"/>
<path d="M23.6667 35.4L23.6667 23.6L35.5 23.6L35.5 35.4L23.6667 35.4Z" fill="white"/>
<path d="M35.5 35.4L35.5 23.6L47.3333 23.6L47.3333 35.4L35.5 35.4Z" fill="white"/>
<path d="M47.3333 35.4L47.3333 23.6L59.1667 23.6L59.1667 35.4L47.3333 35.4Z" fill="white"/>
<path d="M59.1667 35.4L59.1667 23.6L71 23.6L71 35.4L59.1667 35.4Z" fill="white"/>
<path d="M47.3333 47.2L47.3333 35.4L59.1667 35.4L59.1667 47.2L47.3333 47.2Z" fill="white"/>
<path d="M47.3333 23.6L47.3333 11.8L59.1667 11.8L59.1667 23.6L47.3333 23.6Z" fill="white"/>
<path d="M35.5 59L35.5 47.2L47.3333 47.2L47.3333 59L35.5 59Z" fill="white"/>
<path d="M35.5 11.8L35.5 4.23333e-07L47.3333 5.64444e-07L47.3333 11.8L35.5 11.8Z" fill="white"/>
</svg>
